<svg  style="position: absolute; width: 0; height: 0;" version="1.1" xmlns="http://www.w3.org/2000/svg" xmlns:xlink="http://www.w3.org/1999/xlink">
<defs>
<symbol id="icon-portfolio-top" viewBox="0 0 32 32">
<path fill="#fd8558" style="fill: var(--color1, #fd8558)" opacity="0.2" d="M16 0c8.837 0 16 7.163 16 16s-7.163 16-16 16c-8.837 0-16-7.163-16-16s7.163-16 16-16z"></path>
</symbol>
<symbol id="icon-about-1" viewBox="0 0 28 32">
<path fill="#fd8558" style="fill: var(--color1, #fd8558)" opacity="0.1" d="M10.833 0c5.983 0 10.833 4.85 10.833 10.833s-4.85 10.833-10.833 10.833c-5.983 0-10.833-4.85-10.833-10.833s4.85-10.833 10.833-10.833z"></path>
<path fill="#fd8558" style="fill: var(--color1, #fd8558)" d="M19.667 24.667v-2h0.667v-2h0.667v-2l0-1.853c2.090-1.361 3.333-3.645 3.333-6.147 0-4.044-3.29-7.333-7.333-7.333s-7.333 3.29-7.333 7.333c0 2.486 1.272 4.838 3.333 6.183v3.817h0.667v2h0.667v2h5.333zM19 24h-4v-1.333h4v1.333zM13.508 16.383c-1.958-1.206-3.175-3.396-3.175-5.716 0-3.676 2.991-6.667 6.667-6.667s6.667 2.991 6.667 6.667c0 2.332-1.187 4.455-3.174 5.68l-0.159 0.098v1.555h-1.613l0.943-6.284-0.66-0.099-0.036 0.241-0.936 0.702-1.031-1.031-1.031 1.031-0.936-0.702-0.036-0.241-0.66 0.099 0.943 6.284h-1.613v-1.52l-0.159-0.098zM15.954 18l-0.78-5.203 0.858 0.644 0.969-0.969 0.969 0.969 0.858-0.644-0.78 5.204h-2.093zM13.667 18.667h6.667v1.333h-6.667v-1.333zM14.333 20.667h5.333v1.333h-5.333v-1.333z"></path>
</symbol>
<symbol id="icon-about-2" viewBox="0 0 28 32">
<path fill="#3a0f73" style="fill: var(--color2, #3a0f73)" opacity="0.1" d="M10.833 0c5.983 0 10.833 4.85 10.833 10.833s-4.85 10.833-10.833 10.833c-5.983 0-10.833-4.85-10.833-10.833s4.85-10.833 10.833-10.833z"></path>
<path fill="#3a0f73" style="fill: var(--color2, #3a0f73)" d="M17 3.333c-5.882 0-10.667 4.785-10.667 10.667s4.785 10.667 10.667 10.667c5.882 0 10.667-4.785 10.667-10.667s-4.785-10.667-10.667-10.667zM26.722 11.667h-4.934c-0.522-1.067-1.388-1.933-2.455-2.455v-4.934c3.643 0.874 6.515 3.746 7.389 7.389zM27 14c0 0.568-0.050 1.124-0.142 1.667h-4.796c0.173-0.525 0.271-1.084 0.271-1.667s-0.097-1.142-0.271-1.667h4.796c0.092 0.542 0.142 1.099 0.142 1.667zM17 18.667c-2.573 0-4.667-2.093-4.667-4.667s2.093-4.667 4.667-4.667c2.573 0 4.667 2.093 4.667 4.667s-2.093 4.667-4.667 4.667zM11.937 15.667h-4.796c-0.092-0.542-0.142-1.099-0.142-1.667s0.050-1.124 0.142-1.667h4.796c-0.173 0.525-0.271 1.084-0.271 1.667s0.097 1.142 0.271 1.667zM18.667 4.142v4.796c-0.525-0.174-1.084-0.271-1.667-0.271s-1.142 0.097-1.667 0.271v-4.796c0.542-0.092 1.099-0.142 1.667-0.142s1.124 0.050 1.667 0.142zM14.667 4.278v4.934c-1.067 0.522-1.933 1.388-2.455 2.455h-4.934c0.874-3.643 3.746-6.515 7.389-7.389zM7.278 16.333h4.934c0.522 1.067 1.388 1.933 2.455 2.455v4.934c-3.643-0.874-6.515-3.746-7.389-7.389zM15.333 23.858v-4.796c0.525 0.174 1.084 0.271 1.667 0.271s1.142-0.097 1.667-0.271v4.796c-0.542 0.092-1.099 0.142-1.667 0.142s-1.124-0.050-1.667-0.142zM19.333 23.722v-4.934c1.067-0.522 1.933-1.388 2.455-2.455h4.934c-0.874 3.643-3.746 6.515-7.389 7.389z"></path>
</symbol>
<symbol id="icon-about-3" viewBox="0 0 29 32">
<path fill="#70b446" style="fill: var(--color3, #70b446)" opacity="0.1" d="M10.947 0c6.046 0 10.947 4.901 10.947 10.947s-4.901 10.947-10.947 10.947c-6.046 0-10.947-4.901-10.947-10.947s4.901-10.947 10.947-10.947z"></path>
<path fill="#70b446" style="fill: var(--color3, #70b446)" d="M17.179 3.33c-2.89 0-5.606 1.125-7.649 3.168s-3.168 4.76-3.168 7.649c0 2.889 1.125 5.587 3.168 7.63s4.759 3.149 7.649 3.149c0 0 0.001 0 0.001 0h0.001c5.964 0 10.816-4.834 10.816-10.798 0-2.889-1.125-5.596-3.168-7.64s-4.759-3.158-7.649-3.158zM17.179 24.291v0.337-0.375c-0 0-0 0-0.001 0-2.709 0-5.256-1.036-7.172-2.951s-2.97-4.453-2.97-7.163c-0-2.71 1.054-5.252 2.97-7.168s4.463-2.968 7.173-2.968c2.71 0 5.256 1.056 7.172 2.972s2.97 4.463 2.97 7.173c0 5.592-4.416 10.143-10.143 10.144z"></path>
<path fill="#70b446" style="fill: var(--color3, #70b446)" d="M17.179 6.4c-2.070 0-4.015 0.806-5.478 2.27s-2.269 3.409-2.269 5.478h0.674c0-1.889 0.736-3.666 2.072-5.002s3.112-2.072 5.002-2.072 3.666 0.736 5.002 2.072c1.336 1.336 2.072 3.112 2.072 5.001h0.674c0-2.069-0.806-4.014-2.269-5.478s-3.409-2.269-5.478-2.269z"></path>
<path fill="#70b446" style="fill: var(--color3, #70b446)" d="M16.76 14.246l-2.021-2.34-0.51 0.441 2.045 2.369c-0.067 0.138-0.107 0.289-0.106 0.447 0.001 0.27 0.107 0.523 0.299 0.713 0.19 0.189 0.443 0.293 0.711 0.293 0.272 0 0.526-0.106 0.718-0.299 0.392-0.396 0.389-1.037-0.006-1.429-0.296-0.293-0.76-0.356-1.13-0.194zM17.418 15.395c-0.127 0.127-0.349 0.128-0.476 0.002-0.064-0.063-0.099-0.148-0.1-0.238s0.034-0.174 0.098-0.238c0.063-0.065 0.148-0.1 0.239-0.1 0.090 0 0.174 0.035 0.237 0.098 0.132 0.13 0.133 0.344 0.002 0.476z"></path>
</symbol>
</defs>
</svg>
