<svg aria-hidden="true" style="position: absolute; width: 0; height: 0; overflow: hidden;" version="1.1" xmlns="http://www.w3.org/2000/svg" xmlns:xlink="http://www.w3.org/2000/svg">
<defs>
<symbol id="icon-portfolio-top" viewBox="0 0 32 32">
<path fill="#fd8558" style="fill: var(--color1, #fd8558)" opacity="0.2" d="M16 0c8.837 0 16 7.163 16 16s-7.163 16-16 16c-8.837 0-16-7.163-16-16s7.163-16 16-16z"></path>
</symbol>
<symbol id="icon-about-1" viewBox="0 0 28 32">
<path fill="#fd8558" style="fill: var(--color1, #fd8558)" opacity="0.1" d="M10.833 0c5.983 0 10.833 4.85 10.833 10.833s-4.85 10.833-10.833 10.833c-5.983 0-10.833-4.85-10.833-10.833s4.85-10.833 10.833-10.833z"></path>
<path fill="#fd8558" style="fill: var(--color1, #fd8558)" d="M19.667 24.667v-2h0.667v-2h0.667v-2l0-1.853c2.090-1.361 3.333-3.645 3.333-6.147 0-4.044-3.29-7.333-7.333-7.333s-7.333 3.29-7.333 7.333c0 2.486 1.272 4.838 3.333 6.183v3.817h0.667v2h0.667v2h5.333zM19 24h-4v-1.333h4v1.333zM13.508 16.383c-1.958-1.206-3.175-3.396-3.175-5.716 0-3.676 2.991-6.667 6.667-6.667s6.667 2.991 6.667 6.667c0 2.332-1.187 4.455-3.174 5.68l-0.159 0.098v1.555h-1.613l0.943-6.284-0.66-0.099-0.036 0.241-0.936 0.702-1.031-1.031-1.031 1.031-0.936-0.702-0.036-0.241-0.66 0.099 0.943 6.284h-1.613v-1.52l-0.159-0.098zM15.954 18l-0.78-5.203 0.858 0.644 0.969-0.969 0.969 0.969 0.858-0.644-0.78 5.204h-2.093zM13.667 18.667h6.667v1.333h-6.667v-1.333zM14.333 20.667h5.333v1.333h-5.333v-1.333z"></path>
</symbol>
<symbol id="icon-about-2" viewBox="0 0 28 32">
<path fill="#3a0f73" style="fill: var(--color2, #3a0f73)" opacity="0.1" d="M10.833 0c5.983 0 10.833 4.85 10.833 10.833s-4.85 10.833-10.833 10.833c-5.983 0-10.833-4.85-10.833-10.833s4.85-10.833 10.833-10.833z"></path>
<path fill="#3a0f73" style="fill: var(--color2, #3a0f73)" d="M17 3.333c-5.882 0-10.667 4.785-10.667 10.667s4.785 10.667 10.667 10.667c5.882 0 10.667-4.785 10.667-10.667s-4.785-10.667-10.667-10.667zM26.722 11.667h-4.934c-0.522-1.067-1.388-1.933-2.455-2.455v-4.934c3.643 0.874 6.515 3.746 7.389 7.389zM27 14c0 0.568-0.050 1.124-0.142 1.667h-4.796c0.173-0.525 0.271-1.084 0.271-1.667s-0.097-1.142-0.271-1.667h4.796c0.092 0.542 0.142 1.099 0.142 1.667zM17 18.667c-2.573 0-4.667-2.093-4.667-4.667s2.093-4.667 4.667-4.667c2.573 0 4.667 2.093 4.667 4.667s-2.093 4.667-4.667 4.667zM11.937 15.667h-4.796c-0.092-0.542-0.142-1.099-0.142-1.667s0.050-1.124 0.142-1.667h4.796c-0.173 0.525-0.271 1.084-0.271 1.667s0.097 1.142 0.271 1.667zM18.667 4.142v4.796c-0.525-0.174-1.084-0.271-1.667-0.271s-1.142 0.097-1.667 0.271v-4.796c0.542-0.092 1.099-0.142 1.667-0.142s1.124 0.050 1.667 0.142zM14.667 4.278v4.934c-1.067 0.522-1.933 1.388-2.455 2.455h-4.934c0.874-3.643 3.746-6.515 7.389-7.389zM7.278 16.333h4.934c0.522 1.067 1.388 1.933 2.455 2.455v4.934c-3.643-0.874-6.515-3.746-7.389-7.389zM15.333 23.858v-4.796c0.525 0.174 1.084 0.271 1.667 0.271s1.142-0.097 1.667-0.271v4.796c-0.542 0.092-1.099 0.142-1.667 0.142s-1.124-0.050-1.667-0.142zM19.333 23.722v-4.934c1.067-0.522 1.933-1.388 2.455-2.455h4.934c-0.874 3.643-3.746 6.515-7.389 7.389z"></path>
</symbol>
<symbol id="icon-about-3" viewBox="0 0 29 32">
<path fill="#70b446" style="fill: var(--color3, #70b446)" opacity="0.1" d="M10.947 0c6.046 0 10.947 4.901 10.947 10.947s-4.901 10.947-10.947 10.947c-6.046 0-10.947-4.901-10.947-10.947s4.901-10.947 10.947-10.947z"></path>
<path fill="#70b446" style="fill: var(--color3, #70b446)" d="M17.179 3.33c-2.89 0-5.606 1.125-7.649 3.168s-3.168 4.76-3.168 7.649c0 2.889 1.125 5.587 3.168 7.63s4.759 3.149 7.649 3.149c0 0 0.001 0 0.001 0h0.001c5.964 0 10.816-4.834 10.816-10.798 0-2.889-1.125-5.596-3.168-7.64s-4.759-3.158-7.649-3.158zM17.179 24.291v0.337-0.375c-0 0-0 0-0.001 0-2.709 0-5.256-1.036-7.172-2.951s-2.97-4.453-2.97-7.163c-0-2.71 1.054-5.252 2.97-7.168s4.463-2.968 7.173-2.968c2.71 0 5.256 1.056 7.172 2.972s2.97 4.463 2.97 7.173c0 5.592-4.416 10.143-10.143 10.144z"></path>
<path fill="#70b446" style="fill: var(--color3, #70b446)" d="M17.179 6.4c-2.070 0-4.015 0.806-5.478 2.27s-2.269 3.409-2.269 5.478h0.674c0-1.889 0.736-3.666 2.072-5.002s3.112-2.072 5.002-2.072 3.666 0.736 5.002 2.072c1.336 1.336 2.072 3.112 2.072 5.001h0.674c0-2.069-0.806-4.014-2.269-5.478s-3.409-2.269-5.478-2.269z"></path>
<path fill="#70b446" style="fill: var(--color3, #70b446)" d="M16.76 14.246l-2.021-2.34-0.51 0.441 2.045 2.369c-0.067 0.138-0.107 0.289-0.106 0.447 0.001 0.27 0.107 0.523 0.299 0.713 0.19 0.189 0.443 0.293 0.711 0.293 0.272 0 0.526-0.106 0.718-0.299 0.392-0.396 0.389-1.037-0.006-1.429-0.296-0.293-0.76-0.356-1.13-0.194zM17.418 15.395c-0.127 0.127-0.349 0.128-0.476 0.002-0.064-0.063-0.099-0.148-0.1-0.238s0.034-0.174 0.098-0.238c0.063-0.065 0.148-0.1 0.239-0.1 0.090 0 0.174 0.035 0.237 0.098 0.132 0.13 0.133 0.344 0.002 0.476z"></path>
</symbol>
<symbol id="icon-facebook2" viewBox="0 0 32 32">
<path d="M29 0h-26c-1.65 0-3 1.35-3 3v26c0 1.65 1.35 3 3 3h13v-14h-4v-4h4v-2c0-3.306 2.694-6 6-6h4v4h-4c-1.1 0-2 0.9-2 2v2h6l-1 4h-5v14h9c1.65 0 3-1.35 3-3v-26c0-1.65-1.35-3-3-3z"></path>
</symbol>
<symbol id="icon-telegram" viewBox="0 0 32 32">
<path d="M16 0c-8.838 0-16 7.162-16 16s7.162 16 16 16 16-7.163 16-16-7.163-16-16-16zM23.863 10.969l-2.625 12.369c-0.181 0.881-0.712 1.087-1.45 0.681l-4-2.956-1.919 1.869c-0.225 0.219-0.4 0.4-0.8 0.4-0.519 0-0.431-0.194-0.606-0.688l-1.363-4.475-3.956-1.231c-0.856-0.262-0.862-0.85 0.194-1.269l15.412-5.95c0.7-0.319 1.381 0.169 1.113 1.25z"></path>
</symbol>
<symbol id="icon-telegram2" viewBox="0 0 32 32">
<path d="M16 8A8 8 0 1 1 0 8a8 8 0 0 1 16 0zM8.287 5.906c-.778.324-2.334.994-4.666 2.01-.378.15-.577.298-.595.442-.03.243.275.339.69.47l.175.055c.408.133.958.288 1.243.294.26.006.549-.1.868-.32 2.179-1.471 3.304-2.214 3.374-2.23.05-.012.12-.026.166.016.047.041.042.12.037.141-.03.129-1.227 1.241-1.846 1.817-.193.18-.33.307-.358.336a8.154 8.154 0 0 1-.188.186c-.38.366-.664.64.015 1.088.327.216.589.393.85.571.284.194.568.387.936.629.093.06.183.125.27.187.331.236.63.448.997.414.214-.02.435-.22.547-.82.265-1.417.786-4.486.906-5.751a1.426 1.426 0 0 0-.013-.315.337.337 0 0 0-.114-.217.526.526 0 0 0-.31-.093c-.3.005-.763.166-2.984 1.09z"/>
</symbol>
<symbol id="icon-youtube" viewBox="0 0 32 32">
<path d="M31.681 9.6c0 0-0.313-2.206-1.275-3.175-1.219-1.275-2.581-1.281-3.206-1.356-4.475-0.325-11.194-0.325-11.194-0.325h-0.012c0 0-6.719 0-11.194 0.325-0.625 0.075-1.987 0.081-3.206 1.356-0.963 0.969-1.269 3.175-1.269 3.175s-0.319 2.588-0.319 5.181v2.425c0 2.587 0.319 5.181 0.319 5.181s0.313 2.206 1.269 3.175c1.219 1.275 2.819 1.231 3.531 1.369 2.563 0.244 10.881 0.319 10.881 0.319s6.725-0.012 11.2-0.331c0.625-0.075 1.988-0.081 3.206-1.356 0.962-0.969 1.275-3.175 1.275-3.175s0.319-2.587 0.319-5.181v-2.425c-0.006-2.588-0.325-5.181-0.325-5.181zM12.694 20.15v-8.994l8.644 4.513-8.644 4.481z"></path>
</symbol>
<symbol id="icon-youtube2" viewBox="0 0 32 32">
<path d="M8.051 1.999h.089c.822.003 4.987.033 6.11.335a2.01 2.01 0 0 1 1.415 1.42c.101.38.172.883.22 1.402l.01.104.022.26.008.104c.065.914.073 1.77.074 1.957v.075c-.001.194-.01 1.108-.082 2.06l-.008.105-.009.104c-.05.572-.124 1.14-.235 1.558a2.007 2.007 0 0 1-1.415 1.42c-1.16.312-5.569.334-6.18.335h-.142c-.309 0-1.587-.006-2.927-.052l-.17-.006-.087-.004-.171-.007-.171-.007c-1.11-.049-2.167-.128-2.654-.26a2.007 2.007 0 0 1-1.415-1.419c-.111-.417-.185-.986-.235-1.558L.09 9.82l-.008-.104A31.4 31.4 0 0 1 0 7.68v-.123c.002-.215.01-.958.064-1.778l.007-.103.003-.052.008-.104.022-.26.01-.104c.048-.519.119-1.023.22-1.402a2.007 2.007 0 0 1 1.415-1.42c.487-.13 1.544-.21 2.654-.26l.17-.007.172-.006.086-.003.171-.007A99.788 99.788 0 0 1 7.858 2h.193zM6.4 5.209v4.818l4.157-2.408L6.4 5.209z"/>
</symbol>
<symbol id="icon-up-arrow" viewBox="0 0 32 32">
<path d="M12.25 0.45c-4.6 1.2-8.65 4.5-10.75 8.8-0.95 2.050-1.2 3.3-1.2 6.75-0.050 3.9 0.1 4.5 1.65 7.4 1.9 3.5 3.5 5 7.25 7 2.15 1.1 3.2 1.3 6.8 1.3s4.65-0.2 6.8-1.3c3.75-2 5.35-3.5 7.25-7 1.55-2.9 1.7-3.5 1.65-7.4 0-3.6-0.2-4.65-1.3-6.8-1.95-3.75-3.5-5.35-6.85-7.15-3.25-1.7-8.2-2.45-11.3-1.6zM20.5 2.8c1.95 0.6 3.3 1.45 5.2 3.35 10.3 10.35 0.15 27.2-13.95 23.15-3.95-1.15-7.8-5-8.95-8.8-1.7-5.65-0.55-10.3 3.4-14.3 4-3.95 8.65-5.1 14.3-3.4z"></path>
<path d="M12.75 12c-2.3 2.35-2.85 3.1-2.35 3.6 0.45 0.45 1.050 0.2 2.6-1.35l1.95-1.9 0.15 5.2c0.1 4.2 0.3 5.2 0.9 5.2s0.8-1 0.9-5.2l0.15-5.2 1.95 1.9c1.55 1.55 2.15 1.8 2.6 1.35 0.5-0.5-0.050-1.25-2.35-3.6-1.65-1.65-3.1-3-3.25-3s-1.6 1.35-3.25 3z"></path>
</symbol>
</defs>
</svg>
